<svg xmlns="http://www.w3.org/2000/svg" width="1110" height="358" viewBox="0 0 1382 445">
  <title>Methodology-full-landscape</title>
  <g>
    <rect x="25.59" y="20" width="299.79" height="110" fill="none" stroke="#0071bc" stroke-miterlimit="10" stroke-width="2" />
    <text transform="translate(45.31 61.86)" font-size="29" fill="#0071bc" font-family="Verdana-Bold, Verdana" font-weight="700">Detect unkeyed <tspan x="84.85" y="34.8">input</tspan></text>
    <rect x="465.38" y="20" width="299.39" height="110" fill="none" stroke="#0071bc" stroke-miterlimit="10" stroke-width="2" />
    <text transform="translate(553.16 63.56)" font-size="29" fill="#0071bc" font-family="Verdana-Bold, Verdana" font-weight="700">Explore <tspan x="-58.69" y="34.8">input potential</tspan></text>
    <rect x="904.92" y="20" width="233.5" height="110" fill="none" stroke="#0071bc" stroke-miterlimit="10" stroke-width="2" />
    <text transform="translate(973.5 64.02)" font-size="29" fill="#0071bc" font-family="Verdana-Bold, Verdana" font-weight="700">Inject <tspan x="-34.66" y="34.8">into cache</tspan></text>
    <rect x="1053.53" y="250.08" width="310" height="110" fill="none" stroke="#0071bc" stroke-miterlimit="10" stroke-width="2" />
    <text transform="translate(1174.18 292.37)" font-size="29" fill="#0071bc" font-family="Verdana-Bold, Verdana" font-weight="700">Find <tspan x="-59.56" y="34.8">target page</tspan></text>
    <rect x="684.16" y="250.08" width="310" height="110" fill="none" stroke="#0071bc" stroke-miterlimit="10" stroke-width="2" />
    <text transform="translate(805.47 296.53)" font-size="29" fill="#0071bc" font-family="Verdana-Bold, Verdana" font-weight="700">Map <tspan x="-58.82" y="34.8">cache rules</tspan></text>
    <polygon points="325.38 77.22 442.6 77.22 442.6 88.79 465.38 75.64 442.6 62.48 442.6 74.05 325.38 74.05 325.38 77.22" fill="#1d81c4" />
    <path d="M997.24,128.2V184s0,.08,0,.1H837.67s-.12,0-.09.06v42.51H826l9,15.67,4.11,7.11,4.11-7.11,9-15.67H840.75V187.36c0-.06,0-.05.07-.05H1000.4s0-.08,0-.12v-59Z" fill="#1d81c4" />
    <path d="M837.83,362v64.05s0,.11,0,.13h375.62V382.87H1225L1214.14,364l-2.27-3.92-2.26,3.92-10.89,18.87h11.56V423H841s0-.07,0-.11V362Z" fill="#1d81c4" />
    <polygon points="764.07 77.22 881.29 77.22 881.29 88.79 904.07 75.64 881.29 62.48 881.29 74.05 764.07 74.05 764.07 77.22" fill="#1d81c4" />
    <path d="M1213.46,249.49V182.55s0-.11,0-.14h-160c-.12,0-.05-.11-.07-.16V151h11.57L1055,133.9l-3.28-5.7-3.29,5.7L1038.59,151h11.57v34.53s0,.06,0,.07h160.1s0,.07,0,.1v63.8Z" fill="#1d81c4" />
  </g>
</svg>